<?xml version="1.0" encoding="UTF-8" standalone="no"?>
<!-- Created with Inkscape (http://www.inkscape.org/) -->

<svg
   xmlns:dc="http://purl.org/dc/elements/1.1/"
   xmlns:cc="http://creativecommons.org/ns#"
   xmlns:rdf="http://www.w3.org/1999/02/22-rdf-syntax-ns#"
   xmlns:svg="http://www.w3.org/2000/svg"
   xmlns="http://www.w3.org/2000/svg"
   xmlns:sodipodi="http://sodipodi.sourceforge.net/DTD/sodipodi-0.dtd"
   xmlns:inkscape="http://www.inkscape.org/namespaces/inkscape"
   width="640px"
   height="480px"
   id="svg12"
   sodipodi:version="0.32"
   inkscape:version="0.46+devel"
   sodipodi:docname="leniwiec.svg"
   inkscape:output_extension="org.inkscape.output.svg.inkscape">
  <defs
     id="defs14">
    <marker
       inkscape:stockid="Arrow2Mend"
       orient="auto"
       refY="0.0"
       refX="0.0"
       id="Arrow2Mend"
       style="overflow:visible;">
      <path
         id="path889"
         style="font-size:12.0;fill-rule:evenodd;stroke-width:0.62500000;stroke-linejoin:round;"
         d="M 8.7185878,4.0337352 L -2.2072895,0.016013256 L 8.7185884,-4.0017078 C 6.9730900,-1.6296469 6.9831476,1.6157441 8.7185878,4.0337352 z "
         transform="scale(0.6) rotate(180) translate(0,0)" />
    </marker>
    <marker
       inkscape:stockid="Arrow1Send"
       orient="auto"
       refY="0.0"
       refX="0.0"
       id="Arrow1Send"
       style="overflow:visible;">
      <path
         id="path877"
         d="M 0.0,0.0 L 5.0,-5.0 L -12.5,0.0 L 5.0,5.0 L 0.0,0.0 z "
         style="fill-rule:evenodd;stroke:#000000;stroke-width:1.0pt;marker-start:none;"
         transform="scale(0.2) rotate(180) translate(6,0)" />
    </marker>
    <marker
       inkscape:stockid="Arrow1Mend"
       orient="auto"
       refY="0.0"
       refX="0.0"
       id="Arrow1Mend"
       style="overflow:visible;">
      <path
         id="path871"
         d="M 0.0,0.0 L 5.0,-5.0 L -12.5,0.0 L 5.0,5.0 L 0.0,0.0 z "
         style="fill-rule:evenodd;stroke:#000000;stroke-width:1.0pt;marker-start:none;"
         transform="scale(0.4) rotate(180) translate(10,0)" />
    </marker>
    <marker
       inkscape:stockid="TriangleOutL"
       orient="auto"
       refY="0.0"
       refX="0.0"
       id="TriangleOutL"
       style="overflow:visible">
      <path
         id="path1005"
         d="M 5.77,0.0 L -2.88,5.0 L -2.88,-5.0 L 5.77,0.0 z "
         style="fill-rule:evenodd;stroke:#000000;stroke-width:1.0pt;marker-start:none"
         transform="scale(0.8)" />
    </marker>
    <marker
       inkscape:stockid="Arrow2Lend"
       orient="auto"
       refY="0.0"
       refX="0.0"
       id="Arrow2Lend"
       style="overflow:visible;">
      <path
         id="path883"
         style="font-size:12.0;fill-rule:evenodd;stroke-width:0.62500000;stroke-linejoin:round;"
         d="M 8.7185878,4.0337352 L -2.2072895,0.016013256 L 8.7185884,-4.0017078 C 6.9730900,-1.6296469 6.9831476,1.6157441 8.7185878,4.0337352 z "
         transform="scale(1.1) rotate(180) translate(1,0)" />
    </marker>
    <inkscape:perspective
       sodipodi:type="inkscape:persp3d"
       inkscape:vp_x="0 : 240 : 1"
       inkscape:vp_y="0 : 1000 : 0"
       inkscape:vp_z="640 : 240 : 1"
       inkscape:persp3d-origin="320 : 160 : 1"
       id="perspective20" />
    <filter
       inkscape:collect="always"
       id="filter2075">
      <feGaussianBlur
         inkscape:collect="always"
         stdDeviation="0.025"
         id="feGaussianBlur2077" />
    </filter>
    <filter
       inkscape:collect="always"
       id="filter3619">
      <feGaussianBlur
         inkscape:collect="always"
         stdDeviation="0.03"
         id="feGaussianBlur3621" />
    </filter>
  </defs>
  <sodipodi:namedview
     id="base"
     pagecolor="#ffffff"
     bordercolor="#666666"
     borderopacity="1.0"
     inkscape:pageopacity="0.0"
     inkscape:pageshadow="2"
     inkscape:zoom="1.1265625"
     inkscape:cx="320"
     inkscape:cy="240"
     inkscape:current-layer="layer1"
     inkscape:document-units="px"
     showgrid="true"
     borderlayer="true"
     inkscape:window-width="1249"
     inkscape:window-height="946"
     inkscape:window-x="0"
     inkscape:window-y="25">
    <inkscape:grid
       type="xygrid"
       id="grid22"
       empspacing="5"
       visible="true"
       enabled="true"
       snapvisiblegridlinesonly="true"
       spacingx="10px"
       spacingy="10px"
       dotted="false" />
  </sodipodi:namedview>
  <metadata
     id="metadata17">
    <rdf:RDF>
      <cc:Work
         rdf:about="">
        <dc:format>image/svg+xml</dc:format>
        <dc:type
           rdf:resource="http://purl.org/dc/dcmitype/StillImage" />
        <dc:title></dc:title>
      </cc:Work>
    </rdf:RDF>
  </metadata>
  <g
     id="layer1"
     inkscape:label="Layer 1"
     inkscape:groupmode="layer">
    <rect
       style="opacity:0.85093168;fill:#aa0000;fill-opacity:1;stroke:#280b0b;stroke-width:1;stroke-miterlimit:2;stroke-opacity:1;stroke-dasharray:none"
       id="rect24"
       width="40"
       height="60"
       x="560"
       y="220"
       rx="4"
       ry="4" />
    <rect
       ry="4"
       rx="4"
       y="130"
       x="560"
       height="60"
       width="40"
       id="rect802"
       style="opacity:0.85093168;fill:#aa0000;fill-opacity:1;stroke:#280b0b;stroke-width:1;stroke-miterlimit:2;stroke-opacity:1;stroke-dasharray:none" />
    <rect
       style="opacity:0.85093168;fill:#aa0000;fill-opacity:1;stroke:#280b0b;stroke-width:1;stroke-miterlimit:2;stroke-opacity:1;stroke-dasharray:none"
       id="rect804"
       width="40"
       height="60"
       x="190"
       y="140"
       rx="4"
       ry="4"
       inkscape:export-filename="/home/wbzyl/public_git/tutorials/rails3-tutorial/lib/public/images/leniwiec.png"
       inkscape:export-xdpi="90"
       inkscape:export-ydpi="90" />
    <rect
       ry="4"
       rx="4"
       y="30"
       x="560"
       height="60"
       width="40"
       id="rect806"
       style="opacity:0.85093168;fill:#aa0000;fill-opacity:1;stroke:#280b0b;stroke-width:1;stroke-miterlimit:2;stroke-opacity:1;stroke-dasharray:none" />
    <path
       style="opacity:0.78571424;fill:#800000;fill-opacity:1;stroke:#2b0000;stroke-width:1;stroke-miterlimit:2;stroke-opacity:1;stroke-dasharray:none"
       d="m 51,35.0625 c -0.554,0 -1,0.446 -1,1 L 50,44 50,44.0625 50,76 c 0,2.216 1.784,4 4,4 l 52,0 c 2.216,0 4,-1.784 4,-4 l 0,-32 c 0,-2.216 -1.784,-4 -4,-4 l -36,0 0,-3.9375 c 0,-0.554 -0.446,-1 -1,-1 l -18,0 z"
       id="rect828"
       inkscape:export-filename="/home/wbzyl/public_git/tutorials/rails3-tutorial/lib/public/images/leniwiec.png"
       inkscape:export-xdpi="90"
       inkscape:export-ydpi="90" />
    <path
       id="path833"
       d="m 451,135.0625 c -0.554,0 -1,0.446 -1,1 l 0,7.9375 0,0.0625 0,31.9375 c 0,2.216 1.784,4 4,4 l 52,0 c 2.216,0 4,-1.784 4,-4 l 0,-32 c 0,-2.216 -1.784,-4 -4,-4 l -36,0 0,-3.9375 c 0,-0.554 -0.446,-1 -1,-1 l -18,0 z"
       style="opacity:0.78571424;fill:#800000;fill-opacity:1;stroke:#2b0000;stroke-width:1;stroke-miterlimit:2;stroke-opacity:1;stroke-dasharray:none" />
    <path
       style="opacity:0.78571424;fill:#800000;fill-opacity:1;stroke:#2b0000;stroke-width:1;stroke-miterlimit:2;stroke-opacity:1;stroke-dasharray:none"
       d="m 451,35.0625 c -0.554,0 -1,0.446 -1,1 L 450,44 450,44.0625 450,76 c 0,2.216 1.784,4 4,4 l 52,0 c 2.216,0 4,-1.784 4,-4 l 0,-32 c 0,-2.216 -1.784,-4 -4,-4 l -36,0 0,-3.9375 c 0,-0.554 -0.446,-1 -1,-1 l -18,0 z"
       id="path835" />
    <path
       id="path837"
       d="m 121,85.0625 c -0.554,0 -1,0.446 -1,1 L 120,94 120,94.0625 120,126 c 0,2.216 1.784,4 4,4 l 52,0 c 2.216,0 4,-1.784 4,-4 l 0,-32 c 0,-2.216 -1.784,-4 -4,-4 l -36,0 0,-3.9375 c 0,-0.554 -0.446,-1 -1,-1 l -18,0 z"
       style="opacity:0.78571424;fill:#800000;fill-opacity:1;stroke:#2b0000;stroke-width:1;stroke-miterlimit:2;stroke-opacity:1;stroke-dasharray:none"
       inkscape:export-filename="/home/wbzyl/public_git/tutorials/rails3-tutorial/lib/public/images/leniwiec.png"
       inkscape:export-xdpi="90"
       inkscape:export-ydpi="90" />
    <path
       style="fill:#ffffff;stroke:#000000;stroke-width:2;stroke-opacity:1;marker-end:url(#Arrow2Mend);opacity:0.66000000000000003;filter:url(#filter2075);stroke-miterlimit:4;stroke-dasharray:none;stroke-linecap:round"
       d="m 80,90 0,20 30,0"
       id="path839"
       inkscape:export-filename="/home/wbzyl/public_git/tutorials/rails3-tutorial/lib/public/images/leniwiec.png"
       inkscape:export-xdpi="90"
       inkscape:export-ydpi="90" />
    <path
       style="stroke-width:2;fill:#ffffff;stroke:#000000;stroke-opacity:1;font-size:12;stroke-miterlimit:4;stroke-dasharray:none;marker-end:url(#Arrow2Mend);opacity:0.59999999999999998;filter:url(#filter3619)"
       d="m 150,140 0,30 30,0"
       id="path841"
       inkscape:export-filename="/home/wbzyl/public_git/tutorials/rails3-tutorial/lib/public/images/leniwiec.png"
       inkscape:export-xdpi="90"
       inkscape:export-ydpi="90" />
    <text
       xml:space="preserve"
       style="font-size:14px;font-style:normal;font-variant:normal;font-weight:normal;font-stretch:normal;text-align:start;line-height:125%;writing-mode:lr-tb;text-anchor:start;font-family:MaszynaAEG;-inkscape-font-specification:MaszynaAEG"
       x="120"
       y="60"
       id="text843"
       sodipodi:linespacing="125%"
       inkscape:export-filename="/home/wbzyl/public_git/tutorials/rails3-tutorial/lib/public/images/leniwiec.png"
       inkscape:export-xdpi="90"
       inkscape:export-ydpi="90"><tspan
         sodipodi:role="line"
         id="tspan845"
         x="120"
         y="60">app</tspan></text>
    <text
       xml:space="preserve"
       style="font-size:14px;font-style:normal;font-variant:normal;font-weight:normal;font-stretch:normal;text-align:start;line-height:125%;writing-mode:lr-tb;text-anchor:start;font-family:MaszynaAEG;-inkscape-font-specification:MaszynaAEG"
       x="190"
       y="110"
       id="text847"
       sodipodi:linespacing="125%"
       inkscape:export-filename="/home/wbzyl/public_git/tutorials/rails3-tutorial/lib/public/images/leniwiec.png"
       inkscape:export-xdpi="90"
       inkscape:export-ydpi="90"><tspan
         sodipodi:role="line"
         id="tspan849"
         x="190"
         y="110">models</tspan></text>
    <text
       xml:space="preserve"
       style="font-size:14px;font-style:normal;font-variant:normal;font-weight:bold;font-stretch:normal;text-align:start;line-height:100%;writing-mode:lr;text-anchor:start;font-family:MaszynaAEG;-inkscape-font-specification:MaszynaAEG Bold"
       x="203.27322"
       y="177.3093"
       id="text851"
       sodipodi:linespacing="100%"><tspan
         sodipodi:role="line"
         id="tspan853"
         x="203.27322"
         y="177.3093" /></text>
    <text
       xml:space="preserve"
       style="font-size:14px;font-style:normal;font-variant:normal;font-weight:bold;font-stretch:normal;text-align:start;line-height:100%;writing-mode:lr-tb;text-anchor:start;font-family:MaszynaAEG;-inkscape-font-specification:MaszynaAEG Bold"
       x="160"
       y="220"
       id="text855"
       sodipodi:linespacing="100%"
       inkscape:export-filename="/home/wbzyl/public_git/tutorials/rails3-tutorial/lib/public/images/leniwiec.png"
       inkscape:export-xdpi="90"
       inkscape:export-ydpi="90"><tspan
         sodipodi:role="line"
         id="tspan857"
         x="160"
         y="220">leniwiec.rb</tspan></text>
  </g>
</svg>
